<mxfile host="Electron" agent="Mozilla/5.0 (Windows NT 10.0; Win64; x64) AppleWebKit/537.36 (KHTML, like Gecko) draw.io/24.7.17 Chrome/128.0.6613.36 Electron/32.0.1 Safari/537.36" version="24.7.17">
  <diagram name="第 1 页" id="OrtO1BL4J7y-ObEIMfrD">
    <mxGraphModel dx="1143" dy="1248" grid="0" gridSize="10" guides="1" tooltips="1" connect="1" arrows="1" fold="1" page="0" pageScale="1" pageWidth="827" pageHeight="1169" math="0" shadow="0">
      <root>
        <mxCell id="0" />
        <mxCell id="1" parent="0" />
        <mxCell id="rytcNQbgE2_-Tv7Z9gG8-5" style="edgeStyle=orthogonalEdgeStyle;rounded=0;orthogonalLoop=1;jettySize=auto;html=1;entryX=0.5;entryY=0;entryDx=0;entryDy=0;" edge="1" parent="1" source="rytcNQbgE2_-Tv7Z9gG8-1" target="rytcNQbgE2_-Tv7Z9gG8-2">
          <mxGeometry relative="1" as="geometry" />
        </mxCell>
        <mxCell id="rytcNQbgE2_-Tv7Z9gG8-1" value="Input" style="rounded=0;whiteSpace=wrap;html=1;fillColor=#fff2cc;strokeColor=#d6b656;" vertex="1" parent="1">
          <mxGeometry x="133" y="48" width="80" height="40" as="geometry" />
        </mxCell>
        <mxCell id="rytcNQbgE2_-Tv7Z9gG8-7" style="edgeStyle=orthogonalEdgeStyle;rounded=0;orthogonalLoop=1;jettySize=auto;html=1;entryX=0.5;entryY=0;entryDx=0;entryDy=0;" edge="1" parent="1" source="rytcNQbgE2_-Tv7Z9gG8-2" target="rytcNQbgE2_-Tv7Z9gG8-6">
          <mxGeometry relative="1" as="geometry" />
        </mxCell>
        <mxCell id="rytcNQbgE2_-Tv7Z9gG8-2" value="Attention (x)" style="rounded=0;whiteSpace=wrap;html=1;fillColor=#dae8fc;strokeColor=#6c8ebf;" vertex="1" parent="1">
          <mxGeometry x="113" y="136" width="120" height="40" as="geometry" />
        </mxCell>
        <mxCell id="rytcNQbgE2_-Tv7Z9gG8-3" value="Self-Attention" style="text;html=1;align=center;verticalAlign=middle;resizable=0;points=[];autosize=1;strokeColor=none;fillColor=none;" vertex="1" parent="1">
          <mxGeometry x="239" y="146" width="90" height="26" as="geometry" />
        </mxCell>
        <mxCell id="rytcNQbgE2_-Tv7Z9gG8-8" style="edgeStyle=orthogonalEdgeStyle;rounded=0;orthogonalLoop=1;jettySize=auto;html=1;" edge="1" parent="1" source="rytcNQbgE2_-Tv7Z9gG8-4" target="rytcNQbgE2_-Tv7Z9gG8-1">
          <mxGeometry relative="1" as="geometry" />
        </mxCell>
        <mxCell id="rytcNQbgE2_-Tv7Z9gG8-10" style="edgeStyle=orthogonalEdgeStyle;rounded=0;orthogonalLoop=1;jettySize=auto;html=1;entryX=1;entryY=0.5;entryDx=0;entryDy=0;" edge="1" parent="1" source="rytcNQbgE2_-Tv7Z9gG8-4" target="rytcNQbgE2_-Tv7Z9gG8-6">
          <mxGeometry relative="1" as="geometry">
            <Array as="points">
              <mxPoint x="365" y="236" />
            </Array>
          </mxGeometry>
        </mxCell>
        <mxCell id="rytcNQbgE2_-Tv7Z9gG8-4" value="Residual Connection" style="rounded=0;whiteSpace=wrap;html=1;fillColor=#dae8fc;strokeColor=#6c8ebf;" vertex="1" parent="1">
          <mxGeometry x="302" y="88" width="120" height="40" as="geometry" />
        </mxCell>
        <mxCell id="rytcNQbgE2_-Tv7Z9gG8-6" value="Output" style="rounded=0;whiteSpace=wrap;html=1;fillColor=#e1d5e7;strokeColor=#9673a6;" vertex="1" parent="1">
          <mxGeometry x="133" y="216" width="80" height="40" as="geometry" />
        </mxCell>
        <mxCell id="rytcNQbgE2_-Tv7Z9gG8-9" style="edgeStyle=orthogonalEdgeStyle;rounded=0;orthogonalLoop=1;jettySize=auto;html=1;entryX=0.883;entryY=0;entryDx=0;entryDy=0;entryPerimeter=0;" edge="1" parent="1" source="rytcNQbgE2_-Tv7Z9gG8-4" target="rytcNQbgE2_-Tv7Z9gG8-2">
          <mxGeometry relative="1" as="geometry" />
        </mxCell>
        <mxCell id="rytcNQbgE2_-Tv7Z9gG8-13" style="edgeStyle=orthogonalEdgeStyle;rounded=0;orthogonalLoop=1;jettySize=auto;html=1;entryX=0;entryY=0.75;entryDx=0;entryDy=0;" edge="1" parent="1" source="rytcNQbgE2_-Tv7Z9gG8-11" target="rytcNQbgE2_-Tv7Z9gG8-6">
          <mxGeometry relative="1" as="geometry">
            <Array as="points">
              <mxPoint x="-5" y="246" />
            </Array>
          </mxGeometry>
        </mxCell>
        <mxCell id="rytcNQbgE2_-Tv7Z9gG8-11" value="Add (Residual Connection)&lt;div&gt;&#39;x+Attention&#39;&lt;/div&gt;" style="rounded=0;whiteSpace=wrap;html=1;fillColor=#d5e8d4;strokeColor=#82b366;" vertex="1" parent="1">
          <mxGeometry x="-175" y="126" width="264" height="60" as="geometry" />
        </mxCell>
        <mxCell id="rytcNQbgE2_-Tv7Z9gG8-12" style="edgeStyle=orthogonalEdgeStyle;rounded=0;orthogonalLoop=1;jettySize=auto;html=1;entryX=0.642;entryY=0.05;entryDx=0;entryDy=0;entryPerimeter=0;" edge="1" parent="1" source="rytcNQbgE2_-Tv7Z9gG8-1" target="rytcNQbgE2_-Tv7Z9gG8-11">
          <mxGeometry relative="1" as="geometry" />
        </mxCell>
      </root>
    </mxGraphModel>
  </diagram>
</mxfile>
